<svg xmlns="http://www.w3.org/2000/svg" width="256" height="256" viewBox="0 0 100 100"><rect width="100" height="100" rx="20" fill="#000000"></rect><path fill="#fff" d="M30.94 37.05L21.87 37.05L21.87 66.58Q21.59 66.69 21.02 66.83Q20.44 66.97 19.83 66.97L19.83 66.97Q17.41 66.97 17.41 64.93L17.41 64.93L17.41 37.05L7.13 37.05Q6.96 36.77 6.80 36.30Q6.63 35.84 6.63 35.23L6.63 35.23Q6.63 34.30 7.07 33.77Q7.51 33.25 8.34 33.25L8.34 33.25L32.15 33.25Q32.32 33.53 32.48 33.99Q32.65 34.46 32.65 35.01L32.65 35.01Q32.65 35.95 32.21 36.50Q31.77 37.05 30.94 37.05L30.94 37.05ZM59.05 35.84L59.05 35.84Q59.05 36.50 58.69 37.07Q58.33 37.65 57.78 37.93L57.78 37.93Q56.57 37.32 55.06 36.85Q53.55 36.39 51.79 36.39L51.79 36.39Q49.64 36.39 47.80 37.16Q45.96 37.93 44.55 39.49Q43.15 41.06 42.33 43.45Q41.50 45.85 41.45 49.09L41.45 49.09Q42.00 48.54 42.85 47.94Q43.70 47.33 44.83 46.78Q45.96 46.23 47.39 45.88Q48.82 45.52 50.47 45.52L50.47 45.52Q52.89 45.52 54.92 46.20Q56.96 46.89 58.44 48.27Q59.93 49.64 60.75 51.68Q61.58 53.71 61.58 56.41L61.58 56.41Q61.58 58.99 60.75 61.03Q59.93 63.06 58.39 64.46Q56.85 65.87 54.67 66.64Q52.50 67.41 49.86 67.41L49.86 67.41Q47.11 67.41 44.75 66.50Q42.38 65.59 40.65 63.61Q38.92 61.63 37.95 58.52Q36.99 55.42 36.99 51.02L36.99 51.02Q36.99 45.85 38.26 42.33Q39.52 38.81 41.59 36.63Q43.65 34.46 46.29 33.53Q48.93 32.59 51.68 32.59L51.68 32.59Q53.11 32.59 54.43 32.81Q55.75 33.03 56.79 33.44Q57.84 33.86 58.44 34.46Q59.05 35.07 59.05 35.84ZM49.86 63.72L49.86 63.72Q53.05 63.72 55.09 61.80Q57.12 59.87 57.12 56.30L57.12 56.30Q57.12 52.72 55.06 50.99Q53.00 49.26 49.97 49.26L49.97 49.26Q47.00 49.26 44.86 50.47Q42.71 51.68 41.45 53.44L41.45 53.44Q41.50 58.06 43.67 60.89Q45.85 63.72 49.86 63.72ZM88.86 49.97L88.86 49.97Q88.86 46.29 88.17 43.70Q87.48 41.12 86.33 39.47Q85.17 37.82 83.61 37.07Q82.04 36.33 80.28 36.33L80.28 36.33Q78.52 36.33 76.98 37.13Q75.44 37.93 74.28 39.58Q73.13 41.23 72.44 43.81Q71.75 46.40 71.75 49.97L71.75 49.97Q71.75 56.63 73.98 60.15Q76.21 63.67 80.28 63.67L80.28 63.67Q84.40 63.67 86.63 60.15Q88.86 56.63 88.86 49.97ZM80.28 67.41L80.28 67.41Q77.36 67.41 74.97 66.33Q72.58 65.26 70.85 63.09Q69.11 60.92 68.18 57.64Q67.24 54.37 67.24 49.97L67.24 49.97Q67.24 45.24 68.34 41.94Q69.44 38.64 71.26 36.55Q73.07 34.46 75.41 33.53Q77.75 32.59 80.28 32.59L80.28 32.59Q82.81 32.59 85.17 33.55Q87.54 34.52 89.35 36.61Q91.17 38.70 92.27 42.00Q93.37 45.30 93.37 49.97L93.37 49.97Q93.37 54.37 92.43 57.64Q91.50 60.92 89.77 63.09Q88.03 65.26 85.61 66.33Q83.19 67.41 80.28 67.41Z"></path></svg>